<?xml version="1.0" encoding="UTF-8"?>
<svg version="1.1" xmlns="http://www.w3.org/2000/svg" width="200" height="200">
<path d="M0 0 C4.52052641 2.56747781 7.73833244 5.85036411 11.23046875 9.66796875 C12.20094832 10.6683925 13.17509716 11.66526833 14.15266418 12.6587677 C16.69494735 15.26157413 19.18553504 17.90861655 21.66748047 20.56884766 C24.19720379 23.26272264 26.77314308 25.91157142 29.34570312 28.56445312 C33.86739343 33.23840813 38.34692193 37.9489992 42.79801941 42.69035339 C47.55840508 47.73984522 47.55840508 47.73984522 53 52 C54.24861412 57.71769744 55.00880918 64.5901192 51.921875 69.83007812 C48.75626083 73.75525777 44.93045769 76.86945958 41 80 C39.72646022 81.08015041 38.4549863 82.16275258 37.1875 83.25 C36.65769531 83.68699219 36.12789063 84.12398438 35.58203125 84.57421875 C33.0251924 86.8785303 30.8537909 89.50034818 28.625 92.1171875 C26.53509253 94.53866683 24.29099935 96.76929011 22 99 C20.7625 100.2684375 20.7625 100.2684375 19.5 101.5625 C17 104 17 104 14.625 105.8125 C11.67627796 108.26976837 9.31243534 110.9736911 6.84375 113.90234375 C6.2353125 114.59457031 5.626875 115.28679687 5 116 C4.27151855 116.83635986 3.54303711 117.67271973 2.79248047 118.53442383 C-0.88935875 121.78524515 -3.60412344 122.48477069 -8.4715271 122.58831787 C-19.9104934 121.59321463 -28.37366352 109.04733501 -35.625 101.25 C-37.4377828 99.35330107 -39.25416164 97.46003218 -41.07421875 95.5703125 C-43.63597674 92.90936023 -46.19139208 90.2446539 -48.71963501 87.55181885 C-52.30622305 83.73396973 -55.79382031 80.15114788 -60 77 C-61.07734208 75.82336372 -62.12372957 74.61701305 -63.125 73.375 C-65.05074915 70.99123484 -66.37520554 69.74986297 -69 68 C-70.48180226 61.43215791 -70.41950547 55.45638567 -67.04077148 49.60964966 C-64.29552896 46.11612619 -61.14972924 43.03347889 -57.96875 39.94140625 C-56.81668617 38.77666563 -55.66678009 37.60978724 -54.5189209 36.44090271 C-52.11463625 34.01012703 -49.68537735 31.6085002 -47.23486328 29.22436523 C-44.11634502 26.18570464 -41.07287115 23.08264644 -38.04512787 19.95384312 C-35.68684885 17.53344629 -33.29143525 15.15266332 -30.88368225 12.78156853 C-29.74607412 11.65204084 -28.62010346 10.51065108 -27.50706482 9.35690498 C-19.27903528 0.88751247 -11.8329833 -3.05916937 0 0 Z M-32.82421875 41.17578125 C-38.01003195 48.44596489 -40.12269183 56.0904328 -39 65 C-36.90695791 74.15374738 -32.40324165 81.23574165 -24.65625 86.6328125 C-17.14640827 91.01355351 -9.1323145 92.33653008 -0.5625 90.46875 C8.66477604 87.60081285 15.56310963 82.07755101 20.33203125 73.64453125 C23.98979519 65.51473082 24.14787248 57.8505561 21.5 49.375 C18.11793918 41.02142928 12.21287233 34.66646086 4 31 C-9.88897282 26.14587415 -23.36730877 29.89634044 -32.82421875 41.17578125 Z " fill="#286AD7" transform="translate(108,40)"/>
</svg>
